<svg width="823" height="40" viewBox="0 0 823 40" fill="none" xmlns="http://www.w3.org/2000/svg">
<path d="M4.99722 32L29.4082 15.6361C42.3743 6.94428 59.0912 6.16042 72.8137 13.6008L84.43 19.8992C98.1526 27.3396 114.869 26.5557 127.836 17.8639L131.159 15.6361C144.125 6.94428 160.842 6.16042 174.564 13.6008L186.181 19.8992C199.903 27.3396 216.62 26.5557 229.586 17.8639L232.91 15.6361C245.876 6.94428 262.593 6.16042 276.315 13.6008L287.931 19.8992C301.654 27.3396 318.371 26.5557 331.337 17.8639L334.66 15.6361C347.626 6.94428 364.343 6.16042 378.066 13.6008L389.682 19.8992C403.405 27.3396 420.122 26.5557 433.088 17.8639L436.411 15.6361C449.377 6.94428 466.094 6.16042 479.816 13.6008L491.433 19.8992C505.155 27.3396 521.872 26.5557 534.838 17.8639L538.162 15.6361C551.128 6.94428 567.845 6.16042 581.567 13.6008L593.184 19.8992C606.906 27.3396 623.623 26.5557 636.589 17.8639L639.912 15.6361C652.879 6.94426 669.595 6.16042 683.318 13.6008L694.934 19.8992C708.657 27.3396 725.374 26.5557 738.34 17.8639L741.663 15.6361C754.629 6.94428 771.346 6.16042 785.069 13.6008L819.003 32" stroke="#FF0000" stroke-width="16"/>
</svg>
