<svg width="1440" height="1389" viewBox="0 0 1440 1389" fill="none" xmlns="http://www.w3.org/2000/svg">
<path d="M-61.6485 116.034C-58.5342 78.5962 -8.06601 69.0905 8.45444 102.83L327.261 753.925C335.023 769.776 330.508 788.902 316.478 799.609L-81.774 1103.54C-107.268 1123 -143.752 1103.02 -141.094 1071.06L-61.6485 116.034Z" fill="#FCFF6F"/>
<path d="M1436.45 94.8367C1438.24 83.174 1452.18 78.0588 1461.1 85.7899L1884.82 453.233C1893.44 460.711 1890.89 474.697 1880.18 478.641L1370.89 666.203C1360.16 670.152 1349.14 661.137 1350.88 649.841L1436.45 94.8367Z" fill="#3A3F4F"/>
<path d="M1526.57 443.556C1523.09 403.866 1471.47 390.874 1449.62 424.187L1076.18 993.418C1063.4 1012.9 1068.92 1039.05 1088.47 1051.71L1537.32 1342.28C1566.68 1361.28 1605.04 1338.19 1601.99 1303.35L1526.57 443.556Z" fill="#FF6651"/>
</svg>
